# MagicaVoxel @ Ephtracy

# material
mtllib Ptero1.mtl
usemtl palette

# normals
vn -1 0 0
vn 1 0 0
vn 0 0 1
vn 0 0 -1
vn 0 -1 0
vn 0 1 0

# texcoords
vt 0.884766 0.5
vt 0.939453 0.5
vt 0.970703 0.5

# verts
v -11 7 1
v -11 7 -1
v -11 8 1
v -11 8 -1
v -11 9 1
v -11 9 -1
v -11 10 1
v -11 10 -1
v -7 8 1
v -7 8 -1
v -7 9 1
v -7 9 -1
v -6 10 1
v -6 10 -1
v -6 11 1
v -6 11 -1
v -5 6 1
v -5 6 -1
v -5 7 9
v -5 7 8
v -5 7 -8
v -5 7 -9
v -5 8 9
v -5 8 8
v -5 8 1
v -5 8 -1
v -5 8 -8
v -5 8 -9
v -4 4 4
v -4 4 -4
v -4 5 6
v -4 5 4
v -4 5 3
v -4 5 1
v -4 5 -1
v -4 5 -3
v -4 5 -4
v -4 5 -6
v -4 6 9
v -4 6 6
v -4 6 5
v -4 6 3
v -4 6 1
v -4 6 -1
v -4 6 -3
v -4 6 -5
v -4 6 -6
v -4 6 -9
v -4 7 12
v -4 7 9
v -4 7 8
v -4 7 5
v -4 7 -5
v -4 7 -8
v -4 7 -9
v -4 7 -12
v -4 8 12
v -4 8 9
v -4 8 -9
v -4 8 -12
v -3 3 1
v -3 3 -1
v -3 4 1
v -3 4 -1
v -2 6 10
v -2 6 9
v -2 6 -9
v -2 6 -10
v -2 7 10
v -2 7 9
v -2 7 -9
v -2 7 -10
v -2 11 1
v -2 11 -1
v -2 12 1
v -2 12 -1
v 1 5 7
v 1 5 5
v 1 5 -6
v 1 5 -7
v 1 6 7
v 1 6 5
v 1 6 -6
v 1 6 -7
v 2 3 2
v 2 3 1
v 2 3 -1
v 2 3 -2
v 2 4 6
v 2 4 4
v 2 4 2
v 2 4 1
v 2 4 -1
v 2 4 -2
v 2 4 -4
v 2 4 -6
v 2 5 6
v 2 5 4
v 2 5 -4
v 2 5 -6
v 4 2 2
v 4 2 -2
v 4 3 4
v 4 3 2
v 4 3 -2
v 4 3 -4
v 4 4 4
v 4 4 2
v 4 4 -2
v 4 4 -4
v -6 7 1
v -6 7 -1
v -6 8 1
v -6 8 -1
v -4 7 1
v -4 7 -1
v -4 9 1
v -4 9 -1
v -3 6 1
v -3 6 -1
v -3 7 12
v -3 7 11
v -3 7 1
v -3 7 -1
v -3 7 -11
v -3 7 -12
v -3 8 12
v -3 8 11
v -3 8 -11
v -3 8 -12
v -3 9 1
v -3 9 -1
v -3 10 1
v -3 10 -1
v -2 5 6
v -2 5 5
v -2 5 4
v -2 5 3
v -2 5 -3
v -2 5 -4
v -2 6 6
v -2 6 5
v -2 6 4
v -2 6 3
v -2 6 -3
v -2 6 -4
v -2 7 11
v -2 7 10
v -2 7 8
v -2 7 -8
v -2 7 -10
v -2 7 -11
v -2 8 11
v -2 8 8
v -2 8 -8
v -2 8 -11
v -1 6 10
v -1 6 9
v -1 6 -9
v -1 6 -10
v -1 7 10
v -1 7 9
v -1 7 -9
v -1 7 -10
v -1 10 1
v -1 10 -1
v -1 11 1
v -1 11 -1
v 0 6 9
v 0 6 8
v 0 6 -8
v 0 6 -9
v 0 7 9
v 0 7 8
v 0 7 -8
v 0 7 -9
v 0 11 1
v 0 11 -1
v 0 12 1
v 0 12 -1
v 1 6 8
v 1 6 7
v 1 6 5
v 1 6 -5
v 1 6 -7
v 1 6 -8
v 1 7 8
v 1 7 5
v 1 7 -5
v 1 7 -8
v 2 5 7
v 2 5 6
v 2 5 4
v 2 5 1
v 2 5 -1
v 2 5 -4
v 2 5 -6
v 2 5 -7
v 2 6 7
v 2 6 4
v 2 6 1
v 2 6 -1
v 2 6 -4
v 2 6 -7
v 3 4 6
v 3 4 5
v 3 4 -5
v 3 4 -6
v 3 5 6
v 3 5 5
v 3 5 -5
v 3 5 -6
v 4 4 5
v 4 4 4
v 4 4 2
v 4 4 -2
v 4 4 -4
v 4 4 -5
v 4 5 5
v 4 5 2
v 4 5 -2
v 4 5 -5
v 5 2 1
v 5 2 -1
v 5 3 4
v 5 3 3
v 5 3 1
v 5 3 -1
v 5 3 -3
v 5 3 -4
v 5 4 4
v 5 4 3
v 5 4 -3
v 5 4 -4
v 6 3 3
v 6 3 2
v 6 3 1
v 6 3 -1
v 6 3 -2
v 6 3 -3
v 6 4 3
v 6 4 2
v 6 4 1
v 6 4 -1
v 6 4 -2
v 6 4 -3
v 7 3 1
v 7 3 -1
v 7 4 1
v 7 4 -1
v 10 2 2
v 10 2 1
v 10 2 -1
v 10 2 -2
v 10 3 2
v 10 3 1
v 10 3 -1
v 10 3 -2
v -4 7 12
v -4 8 12
v -3 7 12
v -3 8 12
v -3 7 11
v -3 8 11
v -2 7 11
v -2 8 11
v -2 6 10
v -2 7 10
v -1 6 10
v -1 7 10
v -5 7 9
v -5 8 9
v -4 6 9
v -4 7 9
v -4 8 9
v -3 6 9
v -3 7 9
v -2 6 9
v -2 7 9
v -1 6 9
v -1 7 9
v 0 6 9
v 0 7 9
v 0 6 8
v 0 7 8
v 1 6 8
v 1 7 8
v 1 5 7
v 1 6 7
v 2 5 7
v 2 6 7
v -4 5 6
v -4 6 6
v -3 5 6
v -3 6 6
v -2 5 6
v -2 6 6
v 2 4 6
v 2 5 6
v 3 4 6
v 3 5 6
v -2 5 5
v -2 6 5
v 1 5 5
v 1 6 5
v 3 4 5
v 3 5 5
v 4 4 5
v 4 5 5
v -4 4 4
v -4 5 4
v -3 4 4
v -3 5 4
v 2 4 4
v 2 5 4
v 4 3 4
v 4 4 4
v 5 3 4
v 5 4 4
v 5 3 3
v 5 4 3
v 6 3 3
v 6 4 3
v 2 3 2
v 2 4 2
v 4 2 2
v 4 3 2
v 4 4 2
v 6 3 2
v 10 2 2
v 10 3 2
v -11 7 1
v -11 8 1
v -11 9 1
v -11 10 1
v -7 8 1
v -7 9 1
v -6 7 1
v -6 8 1
v -6 9 1
v -6 10 1
v -6 11 1
v -5 6 1
v -5 8 1
v -5 9 1
v -5 10 1
v -4 5 1
v -4 6 1
v -4 7 1
v -4 9 1
v -3 3 1
v -3 4 1
v -3 6 1
v -3 7 1
v -3 9 1
v -3 10 1
v -2 11 1
v -2 12 1
v -1 10 1
v -1 11 1
v 0 11 1
v 0 12 1
v 2 3 1
v 2 4 1
v 2 5 1
v 2 6 1
v 6 3 1
v 6 4 1
v 7 3 1
v 7 4 1
v 5 2 -1
v 5 3 -1
v 7 3 -1
v 10 2 -1
v 10 3 -1
v -4 5 -3
v -4 6 -3
v -3 5 -3
v -3 6 -3
v -2 5 -3
v -2 6 -3
v -2 5 -4
v -2 6 -4
v 2 5 -4
v 2 6 -4
v -4 6 -5
v -4 7 -5
v -3 6 -5
v -3 7 -5
v 1 6 -5
v 1 7 -5
v -5 7 -8
v -5 8 -8
v -4 7 -8
v -3 7 -8
v -3 8 -8
v -2 7 -8
v -2 8 -8
v -5 7 8
v -5 8 8
v -4 7 8
v -3 7 8
v -3 8 8
v -2 7 8
v -2 8 8
v -4 6 5
v -4 7 5
v -3 6 5
v -3 7 5
v 1 6 5
v 1 7 5
v -2 5 4
v -2 6 4
v 2 5 4
v 2 6 4
v -4 5 3
v -4 6 3
v -3 5 3
v -3 6 3
v -2 5 3
v -2 6 3
v 5 2 1
v 5 3 1
v 7 3 1
v 10 2 1
v 10 3 1
v -11 7 -1
v -11 8 -1
v -11 9 -1
v -11 10 -1
v -7 8 -1
v -7 9 -1
v -6 7 -1
v -6 8 -1
v -6 9 -1
v -6 10 -1
v -6 11 -1
v -5 6 -1
v -5 8 -1
v -5 9 -1
v -5 10 -1
v -4 5 -1
v -4 6 -1
v -4 7 -1
v -4 9 -1
v -3 3 -1
v -3 4 -1
v -3 6 -1
v -3 7 -1
v -3 9 -1
v -3 10 -1
v -2 11 -1
v -2 12 -1
v -1 10 -1
v -1 11 -1
v 0 11 -1
v 0 12 -1
v 2 3 -1
v 2 4 -1
v 2 5 -1
v 2 6 -1
v 6 3 -1
v 6 4 -1
v 7 3 -1
v 7 4 -1
v 2 3 -2
v 2 4 -2
v 4 2 -2
v 4 3 -2
v 4 4 -2
v 6 3 -2
v 10 2 -2
v 10 3 -2
v 5 3 -3
v 5 4 -3
v 6 3 -3
v 6 4 -3
v -4 4 -4
v -4 5 -4
v -3 4 -4
v -3 5 -4
v 2 4 -4
v 2 5 -4
v 4 3 -4
v 4 4 -4
v 5 3 -4
v 5 4 -4
v 3 4 -5
v 3 5 -5
v 4 4 -5
v 4 5 -5
v -4 5 -6
v -4 6 -6
v -3 5 -6
v -3 6 -6
v 1 5 -6
v 1 6 -6
v 2 4 -6
v 2 5 -6
v 3 4 -6
v 3 5 -6
v 1 5 -7
v 1 6 -7
v 2 5 -7
v 2 6 -7
v 0 6 -8
v 0 7 -8
v 1 6 -8
v 1 7 -8
v -5 7 -9
v -5 8 -9
v -4 6 -9
v -4 7 -9
v -4 8 -9
v -3 6 -9
v -3 7 -9
v -2 6 -9
v -2 7 -9
v -1 6 -9
v -1 7 -9
v 0 6 -9
v 0 7 -9
v -2 6 -10
v -2 7 -10
v -1 6 -10
v -1 7 -10
v -3 7 -11
v -3 8 -11
v -2 7 -11
v -2 8 -11
v -4 7 -12
v -4 8 -12
v -3 7 -12
v -3 8 -12
v 4 2 2
v 10 2 2
v 5 2 1
v 10 2 1
v 5 2 -1
v 10 2 -1
v 4 2 -2
v 10 2 -2
v 4 3 4
v 5 3 4
v 5 3 3
v 6 3 3
v 2 3 2
v 4 3 2
v 6 3 2
v -3 3 1
v 2 3 1
v 5 3 1
v 7 3 1
v -3 3 -1
v 2 3 -1
v 5 3 -1
v 7 3 -1
v 2 3 -2
v 4 3 -2
v 6 3 -2
v 5 3 -3
v 6 3 -3
v 4 3 -4
v 5 3 -4
v 2 4 6
v 3 4 6
v 3 4 5
v 4 4 5
v -4 4 4
v -3 4 4
v 2 4 4
v 4 4 4
v -3 4 2
v 2 4 2
v 4 4 2
v -3 4 1
v 2 4 1
v -3 4 -1
v 2 4 -1
v -3 4 -2
v 2 4 -2
v 4 4 -2
v -4 4 -4
v -3 4 -4
v 2 4 -4
v 4 4 -4
v 3 4 -5
v 4 4 -5
v 2 4 -6
v 3 4 -6
v 1 5 7
v 2 5 7
v -4 5 6
v -3 5 6
v -2 5 6
v 2 5 6
v -2 5 5
v 1 5 5
v -4 5 4
v -3 5 4
v 2 5 4
v -4 5 -4
v -3 5 -4
v 2 5 -4
v -4 5 -6
v -3 5 -6
v 1 5 -6
v 2 5 -6
v 1 5 -7
v 2 5 -7
v -2 6 10
v -1 6 10
v -4 6 9
v -3 6 9
v -2 6 9
v -1 6 9
v 0 6 9
v 0 6 8
v 1 6 8
v 1 6 7
v -4 6 6
v -3 6 6
v -2 6 6
v -2 6 5
v 1 6 5
v -5 6 1
v -4 6 1
v -5 6 -1
v -4 6 -1
v -4 6 -6
v -3 6 -6
v 1 6 -6
v 1 6 -7
v 0 6 -8
v 1 6 -8
v -4 6 -9
v -3 6 -9
v -2 6 -9
v -1 6 -9
v 0 6 -9
v -2 6 -10
v -1 6 -10
v -4 7 12
v -3 7 12
v -3 7 11
v -2 7 11
v -2 7 10
v -5 7 9
v -4 7 9
v -3 7 9
v -2 7 9
v -5 7 8
v -4 7 8
v -11 7 1
v -6 7 1
v -11 7 -1
v -6 7 -1
v -5 7 -8
v -4 7 -8
v -5 7 -9
v -4 7 -9
v -3 7 -9
v -2 7 -9
v -2 7 -10
v -3 7 -11
v -2 7 -11
v -4 7 -12
v -3 7 -12
v -6 8 1
v -5 8 1
v -6 8 -1
v -5 8 -1
v -11 9 1
v -7 9 1
v -4 9 1
v -3 9 1
v -11 9 -1
v -7 9 -1
v -4 9 -1
v -3 9 -1
v -3 10 1
v -1 10 1
v -3 10 -1
v -1 10 -1
v -1 11 1
v 0 11 1
v -1 11 -1
v 0 11 -1
v 6 3 2
v 10 3 2
v 6 3 1
v 7 3 1
v 10 3 1
v 6 3 -1
v 7 3 -1
v 10 3 -1
v 6 3 -2
v 10 3 -2
v 4 4 4
v 5 4 4
v 5 4 3
v 6 4 3
v 4 4 2
v 6 4 2
v 6 4 1
v 7 4 1
v 6 4 -1
v 7 4 -1
v 4 4 -2
v 6 4 -2
v 5 4 -3
v 6 4 -3
v 4 4 -4
v 5 4 -4
v 2 5 6
v 3 5 6
v 3 5 5
v 4 5 5
v -2 5 4
v 2 5 4
v -4 5 3
v -3 5 3
v -2 5 3
v -3 5 2
v 4 5 2
v -4 5 1
v 2 5 1
v -4 5 -1
v 2 5 -1
v -3 5 -2
v 4 5 -2
v -4 5 -3
v -3 5 -3
v -2 5 -3
v -2 5 -4
v 2 5 -4
v 3 5 -5
v 4 5 -5
v 2 5 -6
v 3 5 -6
v 1 6 7
v 2 6 7
v -4 6 5
v -3 6 5
v 1 6 5
v -2 6 4
v 2 6 4
v -4 6 3
v -3 6 3
v -2 6 3
v -3 6 1
v 2 6 1
v -3 6 -1
v 2 6 -1
v -4 6 -3
v -3 6 -3
v -2 6 -3
v -2 6 -4
v 2 6 -4
v -4 6 -5
v -3 6 -5
v 1 6 -5
v 1 6 -7
v 2 6 -7
v -2 7 10
v -1 7 10
v -1 7 9
v 0 7 9
v -4 7 8
v -3 7 8
v -2 7 8
v 0 7 8
v 1 7 8
v -4 7 5
v -3 7 5
v 1 7 5
v -4 7 1
v -3 7 1
v -4 7 -1
v -3 7 -1
v -4 7 -5
v -3 7 -5
v 1 7 -5
v -4 7 -8
v -3 7 -8
v -2 7 -8
v 0 7 -8
v 1 7 -8
v -1 7 -9
v 0 7 -9
v -2 7 -10
v -1 7 -10
v -4 8 12
v -3 8 12
v -3 8 11
v -2 8 11
v -5 8 9
v -4 8 9
v -3 8 9
v -5 8 8
v -3 8 8
v -2 8 8
v -11 8 1
v -7 8 1
v -11 8 -1
v -7 8 -1
v -5 8 -8
v -3 8 -8
v -2 8 -8
v -5 8 -9
v -4 8 -9
v -3 8 -9
v -3 8 -11
v -2 8 -11
v -4 8 -12
v -3 8 -12
v -11 10 1
v -6 10 1
v -11 10 -1
v -6 10 -1
v -6 11 1
v -2 11 1
v -6 11 -1
v -2 11 -1
v -2 12 1
v 0 12 1
v -2 12 -1
v 0 12 -1

# faces
f 3/3/1 2/3/1 1/3/1
f 4/3/1 2/3/1 3/3/1
f 7/3/1 6/3/1 5/3/1
f 8/3/1 6/3/1 7/3/1
f 11/3/1 10/3/1 9/3/1
f 12/3/1 10/3/1 11/3/1
f 15/3/1 14/3/1 13/3/1
f 16/3/1 14/3/1 15/3/1
f 23/3/1 20/3/1 19/3/1
f 24/3/1 20/3/1 23/3/1
f 25/3/1 18/3/1 17/3/1
f 26/3/1 18/3/1 25/3/1
f 27/3/1 22/3/1 21/3/1
f 28/3/1 22/3/1 27/3/1
f 32/3/1 30/3/1 29/3/1
f 33/3/1 30/3/1 32/3/1
f 34/3/1 30/3/1 33/3/1
f 35/3/1 30/3/1 34/3/1
f 36/3/1 30/3/1 35/3/1
f 37/3/1 30/3/1 36/3/1
f 40/3/1 32/3/1 31/3/1
f 40/3/1 33/3/1 32/3/1
f 41/3/1 33/3/1 40/3/1
f 42/3/1 33/3/1 41/3/1
f 43/3/1 35/3/1 34/3/1
f 44/3/1 35/3/1 43/3/1
f 45/3/1 37/3/1 36/3/1
f 45/3/1 38/3/1 37/3/1
f 46/3/1 38/3/1 45/3/1
f 47/3/1 38/3/1 46/3/1
f 50/3/1 40/3/1 39/3/1
f 50/3/1 41/3/1 40/3/1
f 51/3/1 41/3/1 50/3/1
f 52/3/1 41/3/1 51/3/1
f 53/3/1 48/3/1 47/3/1
f 53/3/1 47/3/1 46/3/1
f 54/3/1 48/3/1 53/3/1
f 55/3/1 48/3/1 54/3/1
f 57/2/1 50/2/1 49/2/1
f 58/2/1 50/2/1 57/2/1
f 59/2/1 56/2/1 55/2/1
f 60/2/1 56/2/1 59/2/1
f 63/3/1 62/3/1 61/3/1
f 64/3/1 62/3/1 63/3/1
f 69/2/1 66/2/1 65/2/1
f 70/2/1 66/2/1 69/2/1
f 71/2/1 68/2/1 67/2/1
f 72/2/1 68/2/1 71/2/1
f 75/3/1 74/3/1 73/3/1
f 76/3/1 74/3/1 75/3/1
f 81/2/1 78/2/1 77/2/1
f 82/2/1 78/2/1 81/2/1
f 83/2/1 80/2/1 79/2/1
f 84/2/1 80/2/1 83/2/1
f 91/3/1 86/3/1 85/3/1
f 92/3/1 86/3/1 91/3/1
f 93/3/1 88/3/1 87/3/1
f 94/3/1 88/3/1 93/3/1
f 97/2/1 90/2/1 89/2/1
f 98/2/1 90/2/1 97/2/1
f 99/2/1 96/2/1 95/2/1
f 100/2/1 96/2/1 99/2/1
f 104/3/1 102/3/1 101/3/1
f 105/3/1 102/3/1 104/3/1
f 107/2/1 104/2/1 103/2/1
f 108/2/1 104/2/1 107/2/1
f 109/2/1 106/2/1 105/2/1
f 110/2/1 106/2/1 109/2/1
f 111/3/2 112/3/2 113/3/2
f 113/3/2 112/3/2 114/3/2
f 115/3/2 116/3/2 117/3/2
f 117/3/2 116/3/2 118/3/2
f 119/3/2 120/3/2 123/3/2
f 123/3/2 120/3/2 124/3/2
f 121/2/2 122/2/2 127/2/2
f 127/2/2 122/2/2 128/2/2
f 125/2/2 126/2/2 129/2/2
f 129/2/2 126/2/2 130/2/2
f 131/3/2 132/3/2 133/3/2
f 133/3/2 132/3/2 134/3/2
f 135/2/2 136/2/2 141/2/2
f 141/2/2 136/2/2 142/2/2
f 137/2/2 138/2/2 143/2/2
f 143/2/2 138/2/2 144/2/2
f 139/2/2 140/2/2 145/2/2
f 145/2/2 140/2/2 146/2/2
f 148/2/2 149/2/2 153/2/2
f 147/2/2 148/2/2 153/2/2
f 153/2/2 149/2/2 154/2/2
f 151/2/2 152/2/2 155/2/2
f 150/2/2 151/2/2 155/2/2
f 155/2/2 152/2/2 156/2/2
f 157/2/2 158/2/2 161/2/2
f 161/2/2 158/2/2 162/2/2
f 159/2/2 160/2/2 163/2/2
f 163/2/2 160/2/2 164/2/2
f 165/3/2 166/3/2 167/3/2
f 167/3/2 166/3/2 168/3/2
f 169/2/2 170/2/2 173/2/2
f 173/2/2 170/2/2 174/2/2
f 171/2/2 172/2/2 175/2/2
f 175/2/2 172/2/2 176/2/2
f 177/3/2 178/3/2 179/3/2
f 179/3/2 178/3/2 180/3/2
f 181/2/2 182/2/2 187/2/2
f 182/2/2 183/2/2 187/2/2
f 187/2/2 183/2/2 188/2/2
f 185/2/2 186/2/2 189/2/2
f 184/2/2 185/2/2 189/2/2
f 189/2/2 186/2/2 190/2/2
f 191/2/2 192/2/2 199/2/2
f 192/2/2 193/2/2 199/2/2
f 199/2/2 193/2/2 200/2/2
f 194/3/2 195/3/2 201/3/2
f 201/3/2 195/3/2 202/3/2
f 197/2/2 198/2/2 203/2/2
f 196/2/2 197/2/2 203/2/2
f 203/2/2 198/2/2 204/2/2
f 205/2/2 206/2/2 209/2/2
f 209/2/2 206/2/2 210/2/2
f 207/2/2 208/2/2 211/2/2
f 211/2/2 208/2/2 212/2/2
f 213/2/2 214/2/2 219/2/2
f 214/2/2 215/2/2 219/2/2
f 215/3/2 216/3/2 220/3/2
f 219/2/2 215/2/2 220/2/2
f 217/2/2 218/2/2 221/2/2
f 220/3/2 216/3/2 221/3/2
f 216/2/2 217/2/2 221/2/2
f 221/2/2 218/2/2 222/2/2
f 223/3/2 224/3/2 227/3/2
f 227/3/2 224/3/2 228/3/2
f 225/2/2 226/2/2 231/2/2
f 231/2/2 226/2/2 232/2/2
f 229/2/2 230/2/2 233/2/2
f 233/2/2 230/2/2 234/2/2
f 235/2/2 236/2/2 241/2/2
f 236/3/2 237/3/2 242/3/2
f 241/2/2 236/2/2 242/2/2
f 242/3/2 237/3/2 243/3/2
f 238/3/2 239/3/2 244/3/2
f 239/2/2 240/2/2 245/2/2
f 244/3/2 239/3/2 245/3/2
f 245/2/2 240/2/2 246/2/2
f 247/3/2 248/3/2 249/3/2
f 249/3/2 248/3/2 250/3/2
f 251/3/2 252/3/2 255/3/2
f 255/3/2 252/3/2 256/3/2
f 253/3/2 254/3/2 257/3/2
f 257/3/2 254/3/2 258/3/2
f 261/2/3 260/2/3 259/2/3
f 262/2/3 260/2/3 261/2/3
f 265/2/3 264/2/3 263/2/3
f 266/2/3 264/2/3 265/2/3
f 269/2/3 268/2/3 267/2/3
f 270/2/3 268/2/3 269/2/3
f 274/3/3 272/3/3 271/3/3
f 275/3/3 272/3/3 274/3/3
f 276/3/3 274/3/3 273/3/3
f 277/3/3 274/3/3 276/3/3
f 278/2/3 277/2/3 276/2/3
f 279/2/3 277/2/3 278/2/3
f 282/2/3 281/2/3 280/2/3
f 283/2/3 281/2/3 282/2/3
f 286/2/3 285/2/3 284/2/3
f 287/2/3 285/2/3 286/2/3
f 290/2/3 289/2/3 288/2/3
f 291/2/3 289/2/3 290/2/3
f 294/3/3 293/3/3 292/3/3
f 295/3/3 293/3/3 294/3/3
f 296/2/3 295/2/3 294/2/3
f 297/2/3 295/2/3 296/2/3
f 300/2/3 299/2/3 298/2/3
f 301/2/3 299/2/3 300/2/3
f 304/2/3 303/2/3 302/2/3
f 305/2/3 303/2/3 304/2/3
f 308/2/3 307/2/3 306/2/3
f 309/2/3 307/2/3 308/2/3
f 312/3/3 311/3/3 310/3/3
f 313/3/3 311/3/3 312/3/3
f 314/2/3 313/2/3 312/2/3
f 315/2/3 313/2/3 314/2/3
f 318/2/3 317/2/3 316/2/3
f 319/2/3 317/2/3 318/2/3
f 322/2/3 321/2/3 320/2/3
f 323/2/3 321/2/3 322/2/3
f 327/3/3 325/3/3 324/3/3
f 328/3/3 325/3/3 327/3/3
f 329/3/3 327/3/3 326/3/3
f 330/3/3 329/3/3 326/3/3
f 331/3/3 329/3/3 330/3/3
f 336/3/3 333/3/3 332/3/3
f 337/3/3 335/3/3 334/3/3
f 338/3/3 336/3/3 332/3/3
f 338/3/3 337/3/3 336/3/3
f 339/3/3 337/3/3 338/3/3
f 340/3/3 335/3/3 337/3/3
f 340/3/3 337/3/3 339/3/3
f 341/3/3 335/3/3 340/3/3
f 344/3/3 340/3/3 339/3/3
f 345/1/3 341/1/3 340/1/3
f 345/3/3 340/3/3 344/3/3
f 346/3/3 342/3/3 341/3/3
f 346/1/3 341/1/3 345/1/3
f 348/3/3 345/3/3 344/3/3
f 348/3/3 344/3/3 343/3/3
f 348/3/3 346/3/3 345/3/3
f 349/3/3 346/3/3 348/3/3
f 350/3/3 346/3/3 349/3/3
f 353/3/3 348/3/3 347/3/3
f 353/3/3 349/3/3 348/3/3
f 354/3/3 349/3/3 353/3/3
f 355/3/3 346/3/3 350/3/3
f 356/3/3 342/3/3 346/3/3
f 356/3/3 346/3/3 355/3/3
f 357/3/3 342/3/3 356/3/3
f 359/3/3 357/3/3 356/3/3
f 359/3/3 358/3/3 357/3/3
f 360/3/3 358/3/3 359/3/3
f 361/3/3 358/3/3 360/3/3
f 362/3/3 358/3/3 361/3/3
f 363/3/3 352/3/3 351/3/3
f 364/3/3 352/3/3 363/3/3
f 365/3/3 353/3/3 347/3/3
f 366/3/3 353/3/3 365/3/3
f 369/3/3 368/3/3 367/3/3
f 370/3/3 368/3/3 369/3/3
f 373/3/3 372/3/3 371/3/3
f 374/3/3 373/3/3 371/3/3
f 375/3/3 373/3/3 374/3/3
f 378/3/3 377/3/3 376/3/3
f 379/3/3 377/3/3 378/3/3
f 380/2/3 379/2/3 378/2/3
f 381/2/3 379/2/3 380/2/3
f 384/2/3 383/2/3 382/2/3
f 385/2/3 383/2/3 384/2/3
f 388/3/3 387/3/3 386/3/3
f 389/3/3 387/3/3 388/3/3
f 390/2/3 389/2/3 388/2/3
f 391/2/3 389/2/3 390/2/3
f 394/3/3 393/3/3 392/3/3
f 395/3/3 393/3/3 394/3/3
f 396/3/3 393/3/3 395/3/3
f 397/2/3 396/2/3 395/2/3
f 398/2/3 396/2/3 397/2/3
f 399/3/4 400/3/4 401/3/4
f 401/3/4 400/3/4 402/3/4
f 402/3/4 400/3/4 403/3/4
f 402/2/4 403/2/4 404/2/4
f 404/2/4 403/2/4 405/2/4
f 406/3/4 407/3/4 408/3/4
f 408/3/4 407/3/4 409/3/4
f 408/2/4 409/2/4 410/2/4
f 410/2/4 409/2/4 411/2/4
f 412/2/4 413/2/4 414/2/4
f 414/2/4 413/2/4 415/2/4
f 416/3/4 417/3/4 418/3/4
f 418/3/4 417/3/4 419/3/4
f 418/2/4 419/2/4 420/2/4
f 420/2/4 419/2/4 421/2/4
f 422/3/4 423/3/4 424/3/4
f 422/3/4 424/3/4 425/3/4
f 425/3/4 424/3/4 426/3/4
f 427/3/4 428/3/4 431/3/4
f 429/3/4 430/3/4 432/3/4
f 427/3/4 431/3/4 433/3/4
f 431/3/4 432/3/4 433/3/4
f 433/3/4 432/3/4 434/3/4
f 432/3/4 430/3/4 435/3/4
f 434/3/4 432/3/4 435/3/4
f 435/3/4 430/3/4 436/3/4
f 434/3/4 435/3/4 439/3/4
f 435/1/4 436/1/4 440/1/4
f 439/3/4 435/3/4 440/3/4
f 436/3/4 437/3/4 441/3/4
f 440/1/4 436/1/4 441/1/4
f 439/3/4 440/3/4 443/3/4
f 438/3/4 439/3/4 443/3/4
f 440/3/4 441/3/4 443/3/4
f 443/3/4 441/3/4 444/3/4
f 444/3/4 441/3/4 445/3/4
f 442/3/4 443/3/4 448/3/4
f 443/3/4 444/3/4 448/3/4
f 448/3/4 444/3/4 449/3/4
f 445/3/4 441/3/4 450/3/4
f 441/3/4 437/3/4 451/3/4
f 450/3/4 441/3/4 451/3/4
f 451/3/4 437/3/4 452/3/4
f 451/3/4 452/3/4 454/3/4
f 452/3/4 453/3/4 454/3/4
f 454/3/4 453/3/4 455/3/4
f 455/3/4 453/3/4 456/3/4
f 456/3/4 453/3/4 457/3/4
f 446/3/4 447/3/4 458/3/4
f 458/3/4 447/3/4 459/3/4
f 442/3/4 448/3/4 460/3/4
f 460/3/4 448/3/4 461/3/4
f 462/3/4 463/3/4 464/3/4
f 464/3/4 463/3/4 465/3/4
f 466/3/4 467/3/4 469/3/4
f 469/3/4 467/3/4 470/3/4
f 468/3/4 469/3/4 471/3/4
f 468/3/4 471/3/4 472/3/4
f 472/3/4 471/3/4 473/3/4
f 474/2/4 475/2/4 476/2/4
f 476/2/4 475/2/4 477/2/4
f 478/3/4 479/3/4 480/3/4
f 480/3/4 479/3/4 481/3/4
f 480/2/4 481/2/4 482/2/4
f 482/2/4 481/2/4 483/2/4
f 484/2/4 485/2/4 486/2/4
f 486/2/4 485/2/4 487/2/4
f 488/2/4 489/2/4 490/2/4
f 490/2/4 489/2/4 491/2/4
f 492/3/4 493/3/4 494/3/4
f 494/3/4 493/3/4 495/3/4
f 494/2/4 495/2/4 496/2/4
f 496/2/4 495/2/4 497/2/4
f 498/2/4 499/2/4 500/2/4
f 500/2/4 499/2/4 501/2/4
f 502/2/4 503/2/4 504/2/4
f 504/2/4 503/2/4 505/2/4
f 506/2/4 507/2/4 508/2/4
f 508/2/4 507/2/4 509/2/4
f 510/3/4 511/3/4 513/3/4
f 513/3/4 511/3/4 514/3/4
f 512/3/4 513/3/4 515/3/4
f 515/3/4 513/3/4 516/3/4
f 515/2/4 516/2/4 517/2/4
f 517/2/4 516/2/4 518/2/4
f 519/2/4 520/2/4 521/2/4
f 521/2/4 520/2/4 522/2/4
f 523/2/4 524/2/4 525/2/4
f 525/2/4 524/2/4 526/2/4
f 527/2/4 528/2/4 529/2/4
f 529/2/4 528/2/4 530/2/4
f 531/2/4 532/2/4 533/2/4
f 533/2/4 532/2/4 534/2/4
f 537/3/5 536/3/5 535/3/5
f 538/3/5 536/3/5 537/3/5
f 539/3/5 537/3/5 535/3/5
f 541/3/5 539/3/5 535/3/5
f 541/3/5 540/3/5 539/3/5
f 542/3/5 540/3/5 541/3/5
f 545/2/5 544/2/5 543/2/5
f 548/2/5 545/2/5 543/2/5
f 548/2/5 546/2/5 545/2/5
f 549/2/5 546/2/5 548/2/5
f 551/3/5 548/3/5 547/3/5
f 554/3/5 551/3/5 550/3/5
f 555/3/5 548/3/5 551/3/5
f 555/3/5 551/3/5 554/3/5
f 556/3/5 553/3/5 552/3/5
f 557/3/5 553/3/5 556/3/5
f 558/3/5 548/3/5 555/3/5
f 559/3/5 548/3/5 558/3/5
f 561/2/5 560/2/5 559/2/5
f 562/2/5 560/2/5 561/2/5
f 563/2/5 561/2/5 559/2/5
f 564/2/5 561/2/5 563/2/5
f 567/2/5 566/2/5 565/2/5
f 571/2/5 567/2/5 565/2/5
f 571/2/5 568/2/5 567/2/5
f 572/2/5 568/2/5 571/2/5
f 573/3/5 570/3/5 569/3/5
f 573/2/5 571/2/5 570/2/5
f 573/2/5 572/2/5 571/2/5
f 574/2/5 572/2/5 573/2/5
f 575/2/5 572/2/5 574/2/5
f 576/3/5 573/3/5 569/3/5
f 576/3/5 574/3/5 573/3/5
f 577/3/5 574/3/5 576/3/5
f 578/3/5 576/3/5 569/3/5
f 580/3/5 578/3/5 569/3/5
f 580/3/5 579/3/5 578/3/5
f 581/3/5 579/3/5 580/3/5
f 583/3/5 580/3/5 569/3/5
f 584/2/5 581/2/5 580/2/5
f 584/3/5 580/3/5 583/3/5
f 584/2/5 582/2/5 581/2/5
f 585/2/5 582/2/5 584/2/5
f 586/2/5 582/2/5 585/2/5
f 587/2/5 586/2/5 585/2/5
f 588/2/5 586/2/5 587/2/5
f 589/2/5 587/2/5 585/2/5
f 590/2/5 587/2/5 589/2/5
f 596/2/5 592/2/5 591/2/5
f 597/2/5 595/2/5 594/2/5
f 598/2/5 596/2/5 591/2/5
f 599/3/5 594/3/5 593/3/5
f 600/2/5 598/2/5 597/2/5
f 600/3/5 594/3/5 599/3/5
f 600/2/5 597/2/5 594/2/5
f 601/2/5 596/2/5 598/2/5
f 601/2/5 598/2/5 600/2/5
f 605/3/5 603/3/5 602/3/5
f 606/2/5 604/2/5 603/2/5
f 606/3/5 603/3/5 605/3/5
f 607/2/5 604/2/5 606/2/5
f 608/2/5 604/2/5 607/2/5
f 609/2/5 608/2/5 607/2/5
f 610/2/5 608/2/5 609/2/5
f 615/2/5 612/2/5 611/2/5
f 616/2/5 612/2/5 615/2/5
f 618/2/5 615/2/5 614/2/5
f 618/2/5 617/2/5 616/2/5
f 618/2/5 616/2/5 615/2/5
f 620/2/5 619/2/5 618/2/5
f 621/3/5 614/3/5 613/3/5
f 622/2/5 618/2/5 614/2/5
f 622/3/5 614/3/5 621/3/5
f 622/2/5 620/2/5 618/2/5
f 623/2/5 620/2/5 622/2/5
f 624/2/5 620/2/5 623/2/5
f 625/2/5 620/2/5 624/2/5
f 628/3/5 627/3/5 626/3/5
f 629/3/5 627/3/5 628/3/5
f 633/2/5 632/2/5 631/2/5
f 634/2/5 633/2/5 631/2/5
f 635/2/5 633/2/5 634/2/5
f 636/3/5 631/3/5 630/3/5
f 637/2/5 634/2/5 631/2/5
f 637/3/5 631/3/5 636/3/5
f 638/2/5 634/2/5 637/2/5
f 639/2/5 634/2/5 638/2/5
f 640/2/5 634/2/5 639/2/5
f 641/2/5 639/2/5 638/2/5
f 642/2/5 639/2/5 641/2/5
f 645/2/5 644/2/5 643/2/5
f 647/2/5 646/2/5 645/2/5
f 649/2/5 645/2/5 643/2/5
f 649/2/5 647/2/5 645/2/5
f 650/2/5 647/2/5 649/2/5
f 651/2/5 647/2/5 650/2/5
f 652/3/5 649/3/5 648/3/5
f 653/3/5 649/3/5 652/3/5
f 656/3/5 655/3/5 654/3/5
f 657/3/5 655/3/5 656/3/5
f 660/3/5 659/3/5 658/3/5
f 661/3/5 659/3/5 660/3/5
f 664/2/5 663/2/5 662/2/5
f 664/2/5 662/2/5 661/2/5
f 665/2/5 664/2/5 661/2/5
f 666/2/5 664/2/5 665/2/5
f 667/2/5 665/2/5 661/2/5
f 668/2/5 665/2/5 667/2/5
f 671/3/5 670/3/5 669/3/5
f 672/3/5 670/3/5 671/3/5
f 677/3/5 674/3/5 673/3/5
f 678/3/5 674/3/5 677/3/5
f 679/3/5 676/3/5 675/3/5
f 680/3/5 676/3/5 679/3/5
f 683/3/5 682/3/5 681/3/5
f 684/3/5 682/3/5 683/3/5
f 687/3/5 686/3/5 685/3/5
f 688/3/5 686/3/5 687/3/5
f 689/3/6 690/3/6 691/3/6
f 691/3/6 690/3/6 692/3/6
f 692/3/6 690/3/6 693/3/6
f 694/3/6 695/3/6 697/3/6
f 695/3/6 696/3/6 697/3/6
f 697/3/6 696/3/6 698/3/6
f 699/2/6 700/2/6 701/2/6
f 699/2/6 701/2/6 703/2/6
f 701/2/6 702/2/6 703/2/6
f 703/2/6 702/2/6 704/2/6
f 703/3/6 704/3/6 705/3/6
f 703/3/6 705/3/6 707/3/6
f 705/3/6 706/3/6 707/3/6
f 707/3/6 706/3/6 708/3/6
f 703/3/6 707/3/6 709/3/6
f 709/3/6 707/3/6 710/3/6
f 709/2/6 710/2/6 711/2/6
f 711/2/6 710/2/6 712/2/6
f 709/2/6 711/2/6 713/2/6
f 713/2/6 711/2/6 714/2/6
f 715/2/6 716/2/6 717/2/6
f 715/2/6 717/2/6 720/2/6
f 717/2/6 718/2/6 720/2/6
f 719/2/6 720/2/6 723/2/6
f 721/3/6 722/3/6 724/3/6
f 722/2/6 723/2/6 724/2/6
f 720/2/6 718/2/6 725/2/6
f 724/2/6 723/2/6 725/2/6
f 723/2/6 720/2/6 725/2/6
f 721/3/6 724/3/6 726/3/6
f 724/3/6 725/3/6 726/3/6
f 726/3/6 725/3/6 727/3/6
f 727/3/6 725/3/6 729/3/6
f 728/3/6 729/3/6 730/3/6
f 729/3/6 725/3/6 731/3/6
f 730/3/6 729/3/6 731/3/6
f 728/3/6 730/3/6 732/3/6
f 730/2/6 731/2/6 733/2/6
f 732/3/6 730/3/6 733/3/6
f 733/2/6 731/2/6 734/2/6
f 734/2/6 731/2/6 735/2/6
f 735/2/6 731/2/6 736/2/6
f 736/2/6 731/2/6 737/2/6
f 737/2/6 731/2/6 738/2/6
f 736/2/6 737/2/6 739/2/6
f 739/2/6 737/2/6 740/2/6
f 741/2/6 742/2/6 745/2/6
f 744/2/6 745/2/6 746/2/6
f 745/2/6 742/2/6 747/2/6
f 746/2/6 745/2/6 747/2/6
f 743/3/6 744/3/6 748/3/6
f 744/2/6 746/2/6 749/2/6
f 748/3/6 744/3/6 749/3/6
f 749/2/6 746/2/6 750/2/6
f 751/3/6 752/3/6 753/3/6
f 753/3/6 752/3/6 754/3/6
f 756/2/6 757/2/6 758/2/6
f 755/3/6 756/3/6 760/3/6
f 758/2/6 759/2/6 761/2/6
f 760/3/6 756/3/6 761/3/6
f 756/2/6 758/2/6 761/2/6
f 761/2/6 759/2/6 762/2/6
f 762/2/6 759/2/6 763/2/6
f 763/2/6 759/2/6 764/2/6
f 765/2/6 766/2/6 767/2/6
f 765/2/6 767/2/6 771/2/6
f 767/2/6 768/2/6 771/2/6
f 771/2/6 768/2/6 772/2/6
f 769/3/6 770/3/6 774/3/6
f 772/2/6 773/2/6 775/2/6
f 774/3/6 770/3/6 775/3/6
f 770/2/6 771/2/6 775/2/6
f 771/2/6 772/2/6 775/2/6
f 775/2/6 773/2/6 776/2/6
f 777/3/6 778/3/6 779/3/6
f 779/3/6 778/3/6 780/3/6
f 781/3/6 782/3/6 784/3/6
f 782/2/6 783/2/6 785/2/6
f 784/3/6 782/3/6 785/3/6
f 785/2/6 783/2/6 786/2/6
f 786/2/6 783/2/6 787/2/6
f 787/2/6 783/2/6 788/2/6
f 786/2/6 787/2/6 789/2/6
f 789/2/6 787/2/6 790/2/6
f 786/2/6 789/2/6 791/2/6
f 791/2/6 789/2/6 792/2/6
f 793/2/6 794/2/6 795/2/6
f 793/2/6 795/2/6 798/2/6
f 795/2/6 796/2/6 798/2/6
f 798/2/6 796/2/6 799/2/6
f 797/3/6 798/3/6 800/3/6
f 798/3/6 799/3/6 800/3/6
f 799/2/6 796/2/6 801/2/6
f 800/3/6 799/3/6 801/3/6
f 801/2/6 796/2/6 802/2/6
f 803/3/6 804/3/6 805/3/6
f 805/3/6 804/3/6 806/3/6
f 807/3/6 808/3/6 810/3/6
f 810/3/6 808/3/6 811/3/6
f 808/2/6 809/2/6 812/2/6
f 811/3/6 808/3/6 812/3/6
f 812/2/6 809/2/6 813/2/6
f 811/2/6 812/2/6 813/2/6
f 813/2/6 809/2/6 814/2/6
f 811/2/6 813/2/6 815/2/6
f 815/2/6 813/2/6 816/2/6
f 817/3/6 818/3/6 819/3/6
f 819/3/6 818/3/6 820/3/6
f 821/3/6 822/3/6 823/3/6
f 823/3/6 822/3/6 824/3/6
f 825/3/6 826/3/6 827/3/6
f 827/3/6 826/3/6 828/3/6
