# MagicaVoxel @ Ephtracy

# material
mtllib Ptero2.mtl
usemtl palette

# normals
vn -1 0 0
vn 1 0 0
vn 0 0 1
vn 0 0 -1
vn 0 -1 0
vn 0 1 0

# texcoords
vt 0.884766 0.5
vt 0.939453 0.5
vt 0.970703 0.5

# verts
v -11 7 1
v -11 7 -1
v -11 8 1
v -11 8 -1
v -11 9 1
v -11 9 -1
v -11 10 1
v -11 10 -1
v -7 8 1
v -7 8 -1
v -7 9 1
v -7 9 -1
v -6 10 1
v -6 10 -1
v -6 11 1
v -6 11 -1
v -5 6 1
v -5 6 -1
v -5 8 1
v -5 8 -1
v -5 11 5
v -5 11 4
v -5 11 -4
v -5 11 -5
v -5 12 5
v -5 12 4
v -5 12 -4
v -5 12 -5
v -4 4 2
v -4 4 -2
v -4 6 3
v -4 6 2
v -4 6 1
v -4 6 -1
v -4 6 -2
v -4 6 -3
v -4 7 2
v -4 7 1
v -4 7 -1
v -4 7 -2
v -4 8 4
v -4 8 3
v -4 8 -3
v -4 8 -4
v -4 9 3
v -4 9 2
v -4 9 -2
v -4 9 -3
v -4 11 4
v -4 11 -4
v -4 12 5
v -4 12 4
v -4 12 3
v -4 12 -3
v -4 12 -4
v -4 12 -5
v -4 15 5
v -4 15 4
v -4 15 -4
v -4 15 -5
v -3 3 1
v -3 3 -1
v -3 4 1
v -3 4 -1
v -2 11 1
v -2 11 -1
v -2 12 4
v -2 12 3
v -2 12 1
v -2 12 -1
v -2 12 -3
v -2 12 -4
v -2 13 4
v -2 13 3
v -2 13 -3
v -2 13 -4
v 1 8 -2
v 1 8 -3
v 1 9 3
v 1 9 2
v 1 10 3
v 1 10 2
v 1 10 -2
v 1 10 -3
v 2 7 2
v 2 7 1
v 2 7 -1
v 2 7 -2
v 2 9 2
v 2 9 1
v 2 9 -1
v 2 9 -2
v 4 2 2
v 4 2 -2
v 4 3 2
v 4 3 1
v 4 3 -1
v 4 3 -2
v 4 5 1
v 4 5 -1
v 4 7 1
v 4 7 -1
v -6 7 1
v -6 7 -1
v -6 8 1
v -6 8 -1
v -4 7 1
v -4 7 -1
v -4 9 1
v -4 9 -1
v -3 6 1
v -3 6 -1
v -3 7 1
v -3 7 -1
v -3 9 1
v -3 9 -1
v -3 10 1
v -3 10 -1
v -3 14 5
v -3 14 4
v -3 14 -4
v -3 14 -5
v -3 15 5
v -3 15 4
v -3 15 -4
v -3 15 -5
v -2 6 3
v -2 6 2
v -2 6 -2
v -2 6 -3
v -2 7 3
v -2 7 2
v -2 7 -2
v -2 7 -3
v -2 8 -2
v -2 8 -3
v -2 9 -2
v -2 9 -3
v -2 11 5
v -2 11 4
v -2 11 -4
v -2 11 -5
v -2 13 4
v -2 13 -4
v -2 14 5
v -2 14 4
v -2 14 -4
v -2 14 -5
v -1 10 1
v -1 10 -1
v -1 11 1
v -1 11 -1
v -1 12 4
v -1 12 3
v -1 12 -3
v -1 12 -4
v -1 13 4
v -1 13 3
v -1 13 -3
v -1 13 -4
v 0 11 4
v 0 11 3
v 0 11 1
v 0 11 -1
v 0 11 -3
v 0 11 -4
v 0 12 4
v 0 12 3
v 0 12 1
v 0 12 -1
v 0 12 -3
v 0 12 -4
v 1 8 4
v 1 8 3
v 1 8 -3
v 1 8 -4
v 1 10 3
v 1 10 -3
v 1 11 4
v 1 11 3
v 1 11 -3
v 1 11 -4
v 2 5 1
v 2 5 -1
v 2 6 1
v 2 6 -1
v 2 7 3
v 2 7 2
v 2 7 -2
v 2 7 -3
v 2 9 2
v 2 9 -2
v 2 10 3
v 2 10 2
v 2 10 -2
v 2 10 -3
v 3 8 2
v 3 8 1
v 3 8 -1
v 3 8 -2
v 3 9 2
v 3 9 1
v 3 9 -1
v 3 9 -2
v 4 4 2
v 4 4 1
v 4 4 -1
v 4 4 -2
v 4 5 2
v 4 5 1
v 4 5 -1
v 4 5 -2
v 4 7 1
v 4 7 -1
v 4 8 2
v 4 8 1
v 4 8 -1
v 4 8 -2
v 5 2 1
v 5 2 -1
v 5 3 1
v 5 3 -1
v 5 6 1
v 5 6 -1
v 5 7 1
v 5 7 -1
v 6 4 1
v 6 4 -1
v 6 5 1
v 6 5 -1
v 6 6 1
v 6 6 -1
v 7 3 1
v 7 3 -1
v 7 4 1
v 7 4 -1
v 10 2 2
v 10 2 1
v 10 2 -1
v 10 2 -2
v 10 3 2
v 10 3 1
v 10 3 -1
v 10 3 -2
v -5 11 5
v -5 12 5
v -4 12 5
v -4 15 5
v -3 11 5
v -3 12 5
v -3 14 5
v -3 15 5
v -2 11 5
v -2 14 5
v -4 8 4
v -4 11 4
v -3 8 4
v -3 11 4
v -2 11 4
v -2 13 4
v -1 12 4
v -1 13 4
v 0 11 4
v 0 12 4
v 1 8 4
v 1 11 4
v -4 6 3
v -4 8 3
v -3 6 3
v -3 8 3
v -2 6 3
v -2 7 3
v 1 8 3
v 1 10 3
v 2 7 3
v 2 10 3
v -4 4 2
v -4 6 2
v -3 5 2
v -3 6 2
v -2 6 2
v -2 7 2
v 2 7 2
v 2 9 2
v 3 8 2
v 3 9 2
v 4 2 2
v 4 3 2
v 4 4 2
v 4 5 2
v 4 8 2
v 10 2 2
v 10 3 2
v -11 7 1
v -11 8 1
v -11 9 1
v -11 10 1
v -7 8 1
v -7 9 1
v -6 7 1
v -6 8 1
v -6 9 1
v -6 10 1
v -6 11 1
v -5 6 1
v -5 8 1
v -5 9 1
v -5 10 1
v -4 6 1
v -4 7 1
v -4 9 1
v -3 3 1
v -3 4 1
v -3 9 1
v -3 10 1
v -2 11 1
v -2 12 1
v -1 10 1
v -1 11 1
v 0 11 1
v 0 12 1
v 4 3 1
v 4 4 1
v 4 5 1
v 4 7 1
v 5 6 1
v 5 7 1
v 6 4 1
v 6 5 1
v 6 6 1
v 7 3 1
v 7 4 1
v -3 6 -1
v -3 7 -1
v 2 5 -1
v 2 6 -1
v 2 7 -1
v 2 9 -1
v 3 8 -1
v 3 9 -1
v 4 5 -1
v 4 7 -1
v 4 8 -1
v 5 2 -1
v 5 3 -1
v 7 3 -1
v 10 2 -1
v 10 3 -1
v -4 7 -2
v -4 9 -2
v -3 7 -2
v -3 9 -2
v -2 8 -2
v -2 9 -2
v 1 8 -2
v 1 10 -2
v 2 7 -2
v 2 9 -2
v 2 10 -2
v -4 9 -3
v -4 12 -3
v -3 9 -3
v -3 12 -3
v -2 8 -3
v -2 9 -3
v -2 12 -3
v -2 13 -3
v -1 12 -3
v -1 13 -3
v 0 11 -3
v 0 12 -3
v 1 8 -3
v 1 10 -3
v 1 11 -3
v -5 11 -4
v -5 12 -4
v -4 11 -4
v -4 12 -4
v -4 15 -4
v -3 12 -4
v -3 14 -4
v -3 15 -4
v -2 12 -4
v -2 13 -4
v -2 14 -4
v -5 11 4
v -5 12 4
v -4 11 4
v -4 12 4
v -4 15 4
v -3 12 4
v -3 14 4
v -3 15 4
v -2 12 4
v -2 13 4
v -2 14 4
v -4 9 3
v -4 12 3
v -3 9 3
v -3 12 3
v -2 12 3
v -2 13 3
v -1 12 3
v -1 13 3
v 0 11 3
v 0 12 3
v 1 9 3
v 1 10 3
v 1 11 3
v -4 7 2
v -4 9 2
v -3 7 2
v -3 9 2
v 1 9 2
v 1 10 2
v 2 7 2
v 2 9 2
v 2 10 2
v -3 6 1
v -3 7 1
v 2 5 1
v 2 6 1
v 2 7 1
v 2 9 1
v 3 8 1
v 3 9 1
v 4 5 1
v 4 7 1
v 4 8 1
v 5 2 1
v 5 3 1
v 7 3 1
v 10 2 1
v 10 3 1
v -11 7 -1
v -11 8 -1
v -11 9 -1
v -11 10 -1
v -7 8 -1
v -7 9 -1
v -6 7 -1
v -6 8 -1
v -6 9 -1
v -6 10 -1
v -6 11 -1
v -5 6 -1
v -5 8 -1
v -5 9 -1
v -5 10 -1
v -4 6 -1
v -4 7 -1
v -4 9 -1
v -3 3 -1
v -3 4 -1
v -3 9 -1
v -3 10 -1
v -2 11 -1
v -2 12 -1
v -1 10 -1
v -1 11 -1
v 0 11 -1
v 0 12 -1
v 4 3 -1
v 4 4 -1
v 4 5 -1
v 4 7 -1
v 5 6 -1
v 5 7 -1
v 6 4 -1
v 6 5 -1
v 6 6 -1
v 7 3 -1
v 7 4 -1
v -4 4 -2
v -4 6 -2
v -3 5 -2
v -3 6 -2
v -2 6 -2
v -2 7 -2
v 2 7 -2
v 2 9 -2
v 3 8 -2
v 3 9 -2
v 4 2 -2
v 4 3 -2
v 4 4 -2
v 4 5 -2
v 4 8 -2
v 10 2 -2
v 10 3 -2
v -4 6 -3
v -4 8 -3
v -3 6 -3
v -3 8 -3
v -2 6 -3
v -2 7 -3
v 1 8 -3
v 1 10 -3
v 2 7 -3
v 2 10 -3
v -4 8 -4
v -4 11 -4
v -3 8 -4
v -3 11 -4
v -2 11 -4
v -2 13 -4
v -1 12 -4
v -1 13 -4
v 0 11 -4
v 0 12 -4
v 1 8 -4
v 1 11 -4
v -5 11 -5
v -5 12 -5
v -4 12 -5
v -4 15 -5
v -3 11 -5
v -3 12 -5
v -3 14 -5
v -3 15 -5
v -2 11 -5
v -2 14 -5
v 4 2 2
v 10 2 2
v 5 2 1
v 10 2 1
v 5 2 -1
v 10 2 -1
v 4 2 -2
v 10 2 -2
v -3 3 1
v 4 3 1
v 5 3 1
v 7 3 1
v -3 3 -1
v 4 3 -1
v 5 3 -1
v 7 3 -1
v -4 4 2
v 4 4 2
v -3 4 1
v 4 4 1
v -3 4 -1
v 4 4 -1
v -4 4 -2
v 4 4 -2
v -4 6 3
v -3 6 3
v -2 6 3
v -4 6 2
v -3 6 2
v -2 6 2
v -5 6 1
v -4 6 1
v -5 6 -1
v -4 6 -1
v -4 6 -2
v -3 6 -2
v -2 6 -2
v -4 6 -3
v -3 6 -3
v -2 6 -3
v -2 7 3
v 2 7 3
v -2 7 2
v 2 7 2
v -11 7 1
v -6 7 1
v -11 7 -1
v -6 7 -1
v -2 7 -2
v 2 7 -2
v -2 7 -3
v 2 7 -3
v -4 8 4
v -3 8 4
v 1 8 4
v -4 8 3
v -3 8 3
v 1 8 3
v -6 8 1
v -5 8 1
v -6 8 -1
v -5 8 -1
v -4 8 -3
v -3 8 -3
v 1 8 -3
v -4 8 -4
v -3 8 -4
v 1 8 -4
v -11 9 1
v -7 9 1
v -4 9 1
v -3 9 1
v -11 9 -1
v -7 9 -1
v -4 9 -1
v -3 9 -1
v -3 10 1
v -1 10 1
v -3 10 -1
v -1 10 -1
v -5 11 5
v -3 11 5
v -2 11 5
v -5 11 4
v -4 11 4
v -3 11 4
v -2 11 4
v -1 11 1
v 0 11 1
v -1 11 -1
v 0 11 -1
v -5 11 -4
v -4 11 -4
v -3 11 -4
v -2 11 -4
v -5 11 -5
v -3 11 -5
v -2 11 -5
v 4 3 2
v 10 3 2
v 4 3 1
v 7 3 1
v 10 3 1
v 4 3 -1
v 7 3 -1
v 10 3 -1
v 4 3 -2
v 10 3 -2
v 6 4 1
v 7 4 1
v 6 4 -1
v 7 4 -1
v 2 5 1
v 4 5 1
v 2 5 -1
v 4 5 -1
v -3 6 1
v 2 6 1
v 5 6 1
v 6 6 1
v -3 6 -1
v 2 6 -1
v 5 6 -1
v 6 6 -1
v -4 7 2
v -3 7 2
v 2 7 2
v -4 7 1
v -3 7 1
v 2 7 1
v 4 7 1
v 5 7 1
v -4 7 -1
v -3 7 -1
v 2 7 -1
v 4 7 -1
v 5 7 -1
v -4 7 -2
v -3 7 -2
v 2 7 -2
v 3 8 2
v 4 8 2
v -11 8 1
v -7 8 1
v 3 8 1
v 4 8 1
v -11 8 -1
v -7 8 -1
v 3 8 -1
v 4 8 -1
v -2 8 -2
v 1 8 -2
v 3 8 -2
v 4 8 -2
v -2 8 -3
v 1 8 -3
v -4 9 3
v -3 9 3
v 1 9 3
v -4 9 2
v -3 9 2
v 1 9 2
v 2 9 2
v 3 9 2
v 2 9 1
v 3 9 1
v 2 9 -1
v 3 9 -1
v -4 9 -2
v -3 9 -2
v -2 9 -2
v 2 9 -2
v 3 9 -2
v -4 9 -3
v -3 9 -3
v -2 9 -3
v 1 10 3
v 2 10 3
v 1 10 2
v 2 10 2
v -11 10 1
v -6 10 1
v -11 10 -1
v -6 10 -1
v 1 10 -2
v 2 10 -2
v 1 10 -3
v 2 10 -3
v 0 11 4
v 1 11 4
v 0 11 3
v 1 11 3
v -6 11 1
v -2 11 1
v -6 11 -1
v -2 11 -1
v 0 11 -3
v 1 11 -3
v 0 11 -4
v 1 11 -4
v -5 12 5
v -4 12 5
v -5 12 4
v -4 12 4
v -3 12 4
v -2 12 4
v -1 12 4
v 0 12 4
v -4 12 3
v -3 12 3
v -2 12 3
v -1 12 3
v 0 12 3
v -2 12 1
v 0 12 1
v -2 12 -1
v 0 12 -1
v -4 12 -3
v -3 12 -3
v -2 12 -3
v -1 12 -3
v 0 12 -3
v -5 12 -4
v -4 12 -4
v -3 12 -4
v -2 12 -4
v -1 12 -4
v 0 12 -4
v -5 12 -5
v -4 12 -5
v -2 13 4
v -1 13 4
v -2 13 3
v -1 13 3
v -2 13 -3
v -1 13 -3
v -2 13 -4
v -1 13 -4
v -3 14 5
v -2 14 5
v -3 14 4
v -2 14 4
v -3 14 -4
v -2 14 -4
v -3 14 -5
v -2 14 -5
v -4 15 5
v -3 15 5
v -4 15 4
v -3 15 4
v -4 15 -4
v -3 15 -4
v -4 15 -5
v -3 15 -5

# faces
f 3/3/1 2/3/1 1/3/1
f 4/3/1 2/3/1 3/3/1
f 7/3/1 6/3/1 5/3/1
f 8/3/1 6/3/1 7/3/1
f 11/3/1 10/3/1 9/3/1
f 12/3/1 10/3/1 11/3/1
f 15/3/1 14/3/1 13/3/1
f 16/3/1 14/3/1 15/3/1
f 19/3/1 18/3/1 17/3/1
f 20/3/1 18/3/1 19/3/1
f 25/3/1 22/3/1 21/3/1
f 26/3/1 22/3/1 25/3/1
f 27/3/1 24/3/1 23/3/1
f 28/3/1 24/3/1 27/3/1
f 32/3/1 30/3/1 29/3/1
f 33/3/1 30/3/1 32/3/1
f 34/3/1 30/3/1 33/3/1
f 35/3/1 30/3/1 34/3/1
f 37/3/1 32/3/1 31/3/1
f 37/3/1 33/3/1 32/3/1
f 38/3/1 33/3/1 37/3/1
f 39/3/1 36/3/1 35/3/1
f 39/3/1 35/3/1 34/3/1
f 40/3/1 36/3/1 39/3/1
f 42/3/1 37/3/1 31/3/1
f 43/3/1 36/3/1 40/3/1
f 45/3/1 42/3/1 41/3/1
f 45/3/1 37/3/1 42/3/1
f 46/3/1 37/3/1 45/3/1
f 47/3/1 44/3/1 43/3/1
f 47/3/1 43/3/1 40/3/1
f 48/3/1 44/3/1 47/3/1
f 49/3/1 45/3/1 41/3/1
f 50/3/1 44/3/1 48/3/1
f 52/3/1 45/3/1 49/3/1
f 53/3/1 45/3/1 52/3/1
f 54/3/1 50/3/1 48/3/1
f 55/3/1 50/3/1 54/3/1
f 57/2/1 52/2/1 51/2/1
f 58/2/1 52/2/1 57/2/1
f 59/2/1 56/2/1 55/2/1
f 60/2/1 56/2/1 59/2/1
f 63/3/1 62/3/1 61/3/1
f 64/3/1 62/3/1 63/3/1
f 69/3/1 66/3/1 65/3/1
f 70/3/1 66/3/1 69/3/1
f 73/2/1 68/2/1 67/2/1
f 74/2/1 68/2/1 73/2/1
f 75/2/1 72/2/1 71/2/1
f 76/2/1 72/2/1 75/2/1
f 81/2/1 80/2/1 79/2/1
f 82/2/1 80/2/1 81/2/1
f 83/2/1 78/2/1 77/2/1
f 84/2/1 78/2/1 83/2/1
f 89/2/1 86/2/1 85/2/1
f 90/2/1 86/2/1 89/2/1
f 91/2/1 88/2/1 87/2/1
f 92/2/1 88/2/1 91/2/1
f 95/3/1 94/3/1 93/3/1
f 96/3/1 94/3/1 95/3/1
f 97/3/1 94/3/1 96/3/1
f 98/3/1 94/3/1 97/3/1
f 101/2/1 100/2/1 99/2/1
f 102/2/1 100/2/1 101/2/1
f 103/3/2 104/3/2 105/3/2
f 105/3/2 104/3/2 106/3/2
f 107/3/2 108/3/2 109/3/2
f 109/3/2 108/3/2 110/3/2
f 111/3/2 112/3/2 113/3/2
f 113/3/2 112/3/2 114/3/2
f 115/3/2 116/3/2 117/3/2
f 117/3/2 116/3/2 118/3/2
f 119/2/2 120/2/2 123/2/2
f 123/2/2 120/2/2 124/2/2
f 121/2/2 122/2/2 125/2/2
f 125/2/2 122/2/2 126/2/2
f 127/2/2 128/2/2 131/2/2
f 131/2/2 128/2/2 132/2/2
f 129/2/2 130/2/2 133/2/2
f 133/2/2 130/2/2 134/2/2
f 135/2/2 136/2/2 137/2/2
f 137/2/2 136/2/2 138/2/2
f 139/2/2 140/2/2 143/2/2
f 141/2/2 142/2/2 144/2/2
f 139/2/2 143/2/2 145/2/2
f 145/2/2 143/2/2 146/2/2
f 144/2/2 142/2/2 147/2/2
f 147/2/2 142/2/2 148/2/2
f 149/3/2 150/3/2 151/3/2
f 151/3/2 150/3/2 152/3/2
f 153/2/2 154/2/2 157/2/2
f 157/2/2 154/2/2 158/2/2
f 155/2/2 156/2/2 159/2/2
f 159/2/2 156/2/2 160/2/2
f 161/2/2 162/2/2 167/2/2
f 167/2/2 162/2/2 168/2/2
f 163/3/2 164/3/2 169/3/2
f 169/3/2 164/3/2 170/3/2
f 165/2/2 166/2/2 171/2/2
f 171/2/2 166/2/2 172/2/2
f 173/2/2 174/2/2 177/2/2
f 175/2/2 176/2/2 178/2/2
f 173/2/2 177/2/2 179/2/2
f 179/2/2 177/2/2 180/2/2
f 178/2/2 176/2/2 181/2/2
f 181/2/2 176/2/2 182/2/2
f 183/3/2 184/3/2 185/3/2
f 185/3/2 184/3/2 186/3/2
f 187/2/2 188/2/2 191/2/2
f 189/2/2 190/2/2 192/2/2
f 187/2/2 191/2/2 193/2/2
f 193/2/2 191/2/2 194/2/2
f 192/2/2 190/2/2 195/2/2
f 195/2/2 190/2/2 196/2/2
f 197/2/2 198/2/2 201/2/2
f 201/2/2 198/2/2 202/2/2
f 199/2/2 200/2/2 203/2/2
f 203/2/2 200/2/2 204/2/2
f 205/3/2 206/3/2 209/3/2
f 209/3/2 206/3/2 210/3/2
f 207/3/2 208/3/2 211/3/2
f 211/3/2 208/3/2 212/3/2
f 209/2/2 210/2/2 213/2/2
f 211/2/2 212/2/2 214/2/2
f 209/2/2 213/2/2 215/2/2
f 215/2/2 213/2/2 216/2/2
f 214/2/2 212/2/2 217/2/2
f 217/2/2 212/2/2 218/2/2
f 219/3/2 220/3/2 221/3/2
f 221/3/2 220/3/2 222/3/2
f 223/2/2 224/2/2 225/2/2
f 225/2/2 224/2/2 226/2/2
f 227/3/2 228/3/2 229/3/2
f 229/3/2 228/3/2 230/3/2
f 229/2/2 230/2/2 231/2/2
f 231/2/2 230/2/2 232/2/2
f 233/3/2 234/3/2 235/3/2
f 235/3/2 234/3/2 236/3/2
f 237/3/2 238/3/2 241/3/2
f 241/3/2 238/3/2 242/3/2
f 239/3/2 240/3/2 243/3/2
f 243/3/2 240/3/2 244/3/2
f 247/3/3 246/3/3 245/3/3
f 249/3/3 247/3/3 245/3/3
f 250/2/3 248/2/3 247/2/3
f 250/3/3 247/3/3 249/3/3
f 251/2/3 248/2/3 250/2/3
f 252/2/3 248/2/3 251/2/3
f 253/2/3 250/2/3 249/2/3
f 253/2/3 251/2/3 250/2/3
f 254/2/3 251/2/3 253/2/3
f 257/3/3 256/3/3 255/3/3
f 258/3/3 256/3/3 257/3/3
f 259/2/3 258/2/3 257/2/3
f 261/2/3 260/2/3 259/2/3
f 262/2/3 260/2/3 261/2/3
f 263/2/3 259/2/3 257/2/3
f 263/2/3 261/2/3 259/2/3
f 264/2/3 261/2/3 263/2/3
f 265/2/3 263/2/3 257/2/3
f 266/2/3 263/2/3 265/2/3
f 269/3/3 268/3/3 267/3/3
f 270/3/3 268/3/3 269/3/3
f 271/2/3 270/2/3 269/2/3
f 272/2/3 270/2/3 271/2/3
f 273/2/3 270/2/3 272/2/3
f 275/2/3 273/2/3 272/2/3
f 275/2/3 274/2/3 273/2/3
f 276/2/3 274/2/3 275/2/3
f 279/3/3 278/3/3 277/3/3
f 280/3/3 278/3/3 279/3/3
f 281/2/3 280/2/3 279/2/3
f 283/2/3 282/2/3 281/2/3
f 285/2/3 284/2/3 283/2/3
f 286/2/3 284/2/3 285/2/3
f 289/3/3 279/3/3 277/3/3
f 290/2/3 281/2/3 279/2/3
f 290/3/3 279/3/3 289/3/3
f 290/2/3 283/2/3 281/2/3
f 290/2/3 285/2/3 283/2/3
f 291/2/3 285/2/3 290/2/3
f 292/3/3 288/3/3 287/3/3
f 293/3/3 288/3/3 292/3/3
f 298/3/3 295/3/3 294/3/3
f 299/3/3 297/3/3 296/3/3
f 300/3/3 298/3/3 294/3/3
f 300/3/3 299/3/3 298/3/3
f 301/3/3 299/3/3 300/3/3
f 302/3/3 297/3/3 299/3/3
f 302/3/3 299/3/3 301/3/3
f 303/3/3 297/3/3 302/3/3
f 306/3/3 302/3/3 301/3/3
f 307/1/3 303/1/3 302/1/3
f 307/3/3 302/3/3 306/3/3
f 308/3/3 304/3/3 303/3/3
f 308/1/3 303/1/3 307/1/3
f 309/3/3 307/3/3 306/3/3
f 309/3/3 306/3/3 305/3/3
f 309/3/3 308/3/3 307/3/3
f 310/3/3 308/3/3 309/3/3
f 311/3/3 308/3/3 310/3/3
f 314/3/3 308/3/3 311/3/3
f 315/3/3 304/3/3 308/3/3
f 315/3/3 308/3/3 314/3/3
f 316/3/3 304/3/3 315/3/3
f 318/3/3 316/3/3 315/3/3
f 318/3/3 317/3/3 316/3/3
f 319/3/3 317/3/3 318/3/3
f 320/3/3 317/3/3 319/3/3
f 321/3/3 317/3/3 320/3/3
f 322/3/3 313/3/3 312/3/3
f 323/3/3 313/3/3 322/3/3
f 326/2/3 325/2/3 324/2/3
f 327/2/3 325/2/3 326/2/3
f 328/3/3 323/3/3 322/3/3
f 328/3/3 324/3/3 323/3/3
f 329/2/3 326/2/3 324/2/3
f 329/3/3 324/3/3 328/3/3
f 330/2/3 326/2/3 329/2/3
f 331/3/3 328/3/3 322/3/3
f 332/3/3 328/3/3 331/3/3
f 336/2/3 334/2/3 333/2/3
f 337/2/3 334/2/3 336/2/3
f 339/2/3 336/2/3 335/2/3
f 339/2/3 338/2/3 337/2/3
f 339/2/3 337/2/3 336/2/3
f 340/2/3 338/2/3 339/2/3
f 341/2/3 339/2/3 335/2/3
f 342/2/3 339/2/3 341/2/3
f 343/2/3 339/2/3 342/2/3
f 346/3/3 345/3/3 344/3/3
f 347/3/3 346/3/3 344/3/3
f 348/3/3 346/3/3 347/3/3
f 351/3/3 350/3/3 349/3/3
f 352/3/3 350/3/3 351/3/3
f 353/2/3 352/2/3 351/2/3
f 354/2/3 352/2/3 353/2/3
f 355/2/3 353/2/3 351/2/3
f 357/2/3 355/2/3 351/2/3
f 357/2/3 356/2/3 355/2/3
f 358/2/3 356/2/3 357/2/3
f 359/2/3 356/2/3 358/2/3
f 362/3/3 361/3/3 360/3/3
f 363/3/3 361/3/3 362/3/3
f 365/2/3 363/2/3 362/2/3
f 366/2/3 363/2/3 365/2/3
f 368/2/3 366/2/3 365/2/3
f 368/2/3 367/2/3 366/2/3
f 368/2/3 365/2/3 364/2/3
f 369/2/3 367/2/3 368/2/3
f 370/2/3 368/2/3 364/2/3
f 371/2/3 368/2/3 370/2/3
f 372/2/3 370/2/3 364/2/3
f 373/2/3 370/2/3 372/2/3
f 374/2/3 370/2/3 373/2/3
f 377/3/3 376/3/3 375/3/3
f 378/3/3 376/3/3 377/3/3
f 380/2/3 379/2/3 378/2/3
f 381/2/3 379/2/3 380/2/3
f 382/2/3 379/2/3 381/2/3
f 383/2/3 381/2/3 380/2/3
f 384/2/3 381/2/3 383/2/3
f 385/2/3 381/2/3 384/2/3
f 386/3/4 387/3/4 388/3/4
f 388/3/4 387/3/4 389/3/4
f 389/2/4 390/2/4 391/2/4
f 391/2/4 390/2/4 392/2/4
f 392/2/4 390/2/4 393/2/4
f 391/2/4 392/2/4 394/2/4
f 394/2/4 392/2/4 395/2/4
f 395/2/4 392/2/4 396/2/4
f 397/3/4 398/3/4 399/3/4
f 399/3/4 398/3/4 400/3/4
f 399/2/4 400/2/4 401/2/4
f 399/2/4 401/2/4 403/2/4
f 401/2/4 402/2/4 403/2/4
f 403/2/4 402/2/4 404/2/4
f 399/2/4 403/2/4 405/2/4
f 405/2/4 403/2/4 406/2/4
f 399/2/4 405/2/4 407/2/4
f 407/2/4 405/2/4 408/2/4
f 408/2/4 405/2/4 409/2/4
f 410/3/4 411/3/4 412/3/4
f 412/3/4 411/3/4 413/3/4
f 412/2/4 413/2/4 414/2/4
f 412/2/4 414/2/4 416/2/4
f 414/2/4 415/2/4 416/2/4
f 416/2/4 415/2/4 417/2/4
f 417/2/4 415/2/4 418/2/4
f 419/2/4 420/2/4 422/2/4
f 422/2/4 420/2/4 423/2/4
f 421/2/4 422/2/4 425/2/4
f 423/2/4 424/2/4 425/2/4
f 422/2/4 423/2/4 425/2/4
f 425/2/4 424/2/4 426/2/4
f 421/2/4 425/2/4 427/2/4
f 427/2/4 425/2/4 428/2/4
f 428/2/4 425/2/4 429/2/4
f 430/3/4 431/3/4 432/3/4
f 430/3/4 432/3/4 433/3/4
f 433/3/4 432/3/4 434/3/4
f 435/3/4 436/3/4 439/3/4
f 437/3/4 438/3/4 440/3/4
f 435/3/4 439/3/4 441/3/4
f 439/3/4 440/3/4 441/3/4
f 441/3/4 440/3/4 442/3/4
f 440/3/4 438/3/4 443/3/4
f 442/3/4 440/3/4 443/3/4
f 443/3/4 438/3/4 444/3/4
f 442/3/4 443/3/4 447/3/4
f 443/1/4 444/1/4 448/1/4
f 447/3/4 443/3/4 448/3/4
f 444/3/4 445/3/4 449/3/4
f 448/1/4 444/1/4 449/1/4
f 447/3/4 448/3/4 450/3/4
f 446/3/4 447/3/4 450/3/4
f 448/3/4 449/3/4 450/3/4
f 450/3/4 449/3/4 451/3/4
f 451/3/4 449/3/4 452/3/4
f 452/3/4 449/3/4 455/3/4
f 449/3/4 445/3/4 456/3/4
f 455/3/4 449/3/4 456/3/4
f 456/3/4 445/3/4 457/3/4
f 456/3/4 457/3/4 459/3/4
f 457/3/4 458/3/4 459/3/4
f 459/3/4 458/3/4 460/3/4
f 460/3/4 458/3/4 461/3/4
f 461/3/4 458/3/4 462/3/4
f 453/3/4 454/3/4 463/3/4
f 463/3/4 454/3/4 464/3/4
f 465/2/4 466/2/4 467/2/4
f 467/2/4 466/2/4 468/2/4
f 463/3/4 464/3/4 469/3/4
f 464/3/4 465/3/4 469/3/4
f 465/2/4 467/2/4 470/2/4
f 469/3/4 465/3/4 470/3/4
f 470/2/4 467/2/4 471/2/4
f 463/3/4 469/3/4 472/3/4
f 472/3/4 469/3/4 473/3/4
f 474/3/4 475/3/4 476/3/4
f 476/3/4 475/3/4 477/3/4
f 476/2/4 477/2/4 478/2/4
f 478/2/4 479/2/4 480/2/4
f 480/2/4 481/2/4 482/2/4
f 482/2/4 481/2/4 483/2/4
f 474/3/4 476/3/4 486/3/4
f 476/2/4 478/2/4 487/2/4
f 486/3/4 476/3/4 487/3/4
f 478/2/4 480/2/4 487/2/4
f 480/2/4 482/2/4 487/2/4
f 487/2/4 482/2/4 488/2/4
f 484/3/4 485/3/4 489/3/4
f 489/3/4 485/3/4 490/3/4
f 491/3/4 492/3/4 493/3/4
f 493/3/4 492/3/4 494/3/4
f 493/2/4 494/2/4 495/2/4
f 495/2/4 494/2/4 496/2/4
f 496/2/4 494/2/4 497/2/4
f 496/2/4 497/2/4 499/2/4
f 497/2/4 498/2/4 499/2/4
f 499/2/4 498/2/4 500/2/4
f 501/3/4 502/3/4 503/3/4
f 503/3/4 502/3/4 504/3/4
f 503/2/4 504/2/4 505/2/4
f 505/2/4 506/2/4 507/2/4
f 507/2/4 506/2/4 508/2/4
f 503/2/4 505/2/4 509/2/4
f 505/2/4 507/2/4 509/2/4
f 509/2/4 507/2/4 510/2/4
f 503/2/4 509/2/4 511/2/4
f 511/2/4 509/2/4 512/2/4
f 513/3/4 514/3/4 515/3/4
f 513/3/4 515/3/4 517/3/4
f 515/2/4 516/2/4 518/2/4
f 517/3/4 515/3/4 518/3/4
f 518/2/4 516/2/4 519/2/4
f 519/2/4 516/2/4 520/2/4
f 517/2/4 518/2/4 521/2/4
f 518/2/4 519/2/4 521/2/4
f 521/2/4 519/2/4 522/2/4
f 525/3/5 524/3/5 523/3/5
f 526/3/5 524/3/5 525/3/5
f 527/3/5 525/3/5 523/3/5
f 529/3/5 527/3/5 523/3/5
f 529/3/5 528/3/5 527/3/5
f 530/3/5 528/3/5 529/3/5
f 535/3/5 532/3/5 531/3/5
f 536/3/5 532/3/5 535/3/5
f 537/3/5 534/3/5 533/3/5
f 538/3/5 534/3/5 537/3/5
f 541/3/5 540/3/5 539/3/5
f 542/3/5 540/3/5 541/3/5
f 543/3/5 541/3/5 539/3/5
f 545/3/5 543/3/5 539/3/5
f 545/3/5 544/3/5 543/3/5
f 546/3/5 544/3/5 545/3/5
f 550/3/5 548/3/5 547/3/5
f 551/2/5 549/2/5 548/2/5
f 551/3/5 548/3/5 550/3/5
f 552/2/5 549/2/5 551/2/5
f 555/3/5 554/3/5 553/3/5
f 556/3/5 554/3/5 555/3/5
f 560/3/5 558/3/5 557/3/5
f 561/2/5 559/2/5 558/2/5
f 561/3/5 558/3/5 560/3/5
f 562/2/5 559/2/5 561/2/5
f 565/2/5 564/2/5 563/2/5
f 566/2/5 564/2/5 565/2/5
f 569/3/5 568/3/5 567/3/5
f 570/3/5 568/3/5 569/3/5
f 573/2/5 572/2/5 571/2/5
f 574/2/5 572/2/5 573/2/5
f 578/3/5 576/3/5 575/3/5
f 579/2/5 577/2/5 576/2/5
f 579/3/5 576/3/5 578/3/5
f 580/2/5 577/2/5 579/2/5
f 583/3/5 582/3/5 581/3/5
f 584/3/5 582/3/5 583/3/5
f 588/3/5 586/3/5 585/3/5
f 589/2/5 587/2/5 586/2/5
f 589/3/5 586/3/5 588/3/5
f 590/2/5 587/2/5 589/2/5
f 595/3/5 592/3/5 591/3/5
f 596/3/5 592/3/5 595/3/5
f 597/3/5 594/3/5 593/3/5
f 598/3/5 594/3/5 597/3/5
f 601/3/5 600/3/5 599/3/5
f 602/3/5 600/3/5 601/3/5
f 606/3/5 604/3/5 603/3/5
f 607/3/5 604/3/5 606/3/5
f 608/2/5 605/2/5 604/2/5
f 608/3/5 604/3/5 607/3/5
f 609/2/5 605/2/5 608/2/5
f 612/3/5 611/3/5 610/3/5
f 613/3/5 611/3/5 612/3/5
f 618/3/5 615/3/5 614/3/5
f 618/3/5 616/3/5 615/3/5
f 619/2/5 617/2/5 616/2/5
f 619/3/5 616/3/5 618/3/5
f 620/2/5 617/2/5 619/2/5
f 621/3/6 622/3/6 623/3/6
f 623/3/6 622/3/6 624/3/6
f 624/3/6 622/3/6 625/3/6
f 626/3/6 627/3/6 629/3/6
f 627/3/6 628/3/6 629/3/6
f 629/3/6 628/3/6 630/3/6
f 631/3/6 632/3/6 633/3/6
f 633/3/6 632/3/6 634/3/6
f 635/3/6 636/3/6 637/3/6
f 637/3/6 636/3/6 638/3/6
f 639/3/6 640/3/6 643/3/6
f 643/3/6 640/3/6 644/3/6
f 641/2/6 642/2/6 645/2/6
f 645/2/6 642/2/6 646/2/6
f 647/3/6 648/3/6 650/3/6
f 648/2/6 649/2/6 651/2/6
f 650/3/6 648/3/6 651/3/6
f 651/2/6 649/2/6 652/2/6
f 650/3/6 651/3/6 655/3/6
f 655/3/6 651/3/6 656/3/6
f 653/2/6 654/2/6 658/2/6
f 658/2/6 654/2/6 659/2/6
f 655/3/6 656/3/6 660/3/6
f 656/2/6 657/2/6 661/2/6
f 660/3/6 656/3/6 661/3/6
f 661/2/6 657/2/6 662/2/6
f 663/2/6 664/2/6 667/2/6
f 667/2/6 664/2/6 668/2/6
f 665/3/6 666/3/6 669/3/6
f 669/3/6 666/3/6 670/3/6
f 671/2/6 672/2/6 675/2/6
f 675/2/6 672/2/6 676/2/6
f 673/2/6 674/2/6 677/2/6
f 677/2/6 674/2/6 678/2/6
f 679/3/6 680/3/6 682/3/6
f 680/2/6 681/2/6 683/2/6
f 682/3/6 680/3/6 683/3/6
f 683/2/6 681/2/6 684/2/6
f 685/2/6 686/2/6 687/2/6
f 687/2/6 686/2/6 688/2/6
f 689/2/6 690/2/6 694/2/6
f 694/2/6 690/2/6 695/2/6
f 691/3/6 692/3/6 696/3/6
f 692/2/6 693/2/6 697/2/6
f 696/3/6 692/3/6 697/3/6
f 697/2/6 693/2/6 698/2/6
f 699/2/6 700/2/6 701/2/6
f 701/2/6 700/2/6 702/2/6
f 703/3/6 704/3/6 705/3/6
f 705/3/6 704/3/6 706/3/6
f 707/2/6 708/2/6 709/2/6
f 709/2/6 708/2/6 710/2/6
f 711/2/6 712/2/6 713/2/6
f 713/2/6 712/2/6 714/2/6
f 715/3/6 716/3/6 717/3/6
f 717/3/6 716/3/6 718/3/6
f 719/2/6 720/2/6 721/2/6
f 721/2/6 720/2/6 722/2/6
f 723/3/6 724/3/6 725/3/6
f 725/3/6 724/3/6 726/3/6
f 726/3/6 727/3/6 731/3/6
f 727/2/6 728/2/6 732/2/6
f 731/3/6 727/3/6 732/3/6
f 732/2/6 728/2/6 733/2/6
f 729/2/6 730/2/6 734/2/6
f 734/2/6 730/2/6 735/2/6
f 736/3/6 737/3/6 738/3/6
f 738/3/6 737/3/6 739/3/6
f 740/3/6 741/3/6 746/3/6
f 741/2/6 742/2/6 747/2/6
f 746/3/6 741/3/6 747/3/6
f 747/2/6 742/2/6 748/2/6
f 743/2/6 744/2/6 749/2/6
f 749/2/6 744/2/6 750/2/6
f 745/3/6 746/3/6 751/3/6
f 751/3/6 746/3/6 752/3/6
f 753/2/6 754/2/6 755/2/6
f 755/2/6 754/2/6 756/2/6
f 757/2/6 758/2/6 759/2/6
f 759/2/6 758/2/6 760/2/6
f 761/2/6 762/2/6 763/2/6
f 763/2/6 762/2/6 764/2/6
f 765/2/6 766/2/6 767/2/6
f 767/2/6 766/2/6 768/2/6
f 769/2/6 770/2/6 771/2/6
f 771/2/6 770/2/6 772/2/6
f 773/2/6 774/2/6 775/2/6
f 775/2/6 774/2/6 776/2/6
